<?xml version="1.0" encoding="utf-8"?>
<!-- Generator: Adobe Illustrator 25.0.1, SVG Export Plug-In . SVG Version: 6.00 Build 0)  -->
<svg version="1.1" id="Layer_1" xmlns="http://www.w3.org/2000/svg" xmlns:xlink="http://www.w3.org/1999/xlink" x="0px" y="0px"
	 viewBox="0 0 500 500" style="enable-background:new 0 0 500 500;" xml:space="preserve">
<style type="text/css">
	.st0{fill:#FF206E;}
	.st1{fill:none;stroke:#FF206E;stroke-width:1.1285;stroke-miterlimit:10;}
	.st2{fill-rule:evenodd;clip-rule:evenodd;fill:#FF206E;}
</style>
<g>
	<path class="st0" d="M183,141.1c22.5,0,40.9,18.3,40.9,40.9c0,22.5-18.3,40.9-40.9,40.9c-22.5,0-40.9-18.3-40.9-40.9
		C142.1,159.5,160.5,141.1,183,141.1 M183,140L183,140c-23.2,0-42,18.8-42,42v0c0,23.2,18.8,42,42,42h0c23.2,0,42-18.8,42-42v0
		C225,158.8,206.2,140,183,140L183,140z"/>
</g>
<g>
	<line class="st1" x1="165.1" y1="154.2" x2="201.8" y2="209.9"/>
	<line class="st2" x1="165.1" y1="154.2" x2="201.8" y2="209.9"/>
</g>
<g>
	<line class="st1" x1="200.1" y1="153.9" x2="166.5" y2="209.5"/>
	<line class="st2" x1="200.1" y1="153.9" x2="166.5" y2="209.5"/>
</g>
</svg>
