<?xml version="1.0" encoding="utf-8"?>
<!-- Generator: Adobe Illustrator 25.0.1, SVG Export Plug-In . SVG Version: 6.00 Build 0)  -->
<svg version="1.1" id="Layer_1" xmlns="http://www.w3.org/2000/svg" xmlns:xlink="http://www.w3.org/1999/xlink" x="0px" y="0px"
	 viewBox="0 0 100 100" style="enable-background:new 0 0 100 100;" xml:space="preserve">
<style type="text/css">
	.st0{fill:#FF206E;}
	.st1{fill-rule:evenodd;clip-rule:evenodd;fill:#FF206E;}
</style>
<g>
	<g>
		<path class="st0" d="M50.4,88.9c-8.1,0-15.8-2.4-22.5-7.2c-6.2-4.4-11.4-11.1-14-18.2c-5.7-15.6-1-33.1,11.8-43.7
			C38,9.4,56.5,8.1,70.5,16.5C77.3,20.6,82.6,26.6,86,34c0.7,1.5,1.4,3.5,1.9,5.4c0.5,1.8,1,4.2,1.2,5.7c0.5,4.2,0.3,8.5-0.4,12.3
			c-3.2,16.1-16.1,28.5-32.3,31.1C54.7,88.8,52.4,88.9,50.4,88.9c-3.9,0-3.9,6,0,6c9.3,0,18.6-2.9,26.1-8.4
			C84,81.2,89.7,73.7,92.8,65c6.3-17.6,0.6-38.1-13.9-49.8C71.7,9.3,62.9,5.7,53.6,5.1c-9.2-0.7-18.6,1.6-26.5,6.4
			c-7.7,4.7-14,11.7-17.6,19.9C5.6,40.1,4.5,49.7,6.3,59c3.6,18,18.8,32.7,37,35.4c2.3,0.3,4.7,0.6,7,0.6
			C54.3,94.9,54.3,88.9,50.4,88.9z"/>
	</g>
</g>
<g>
	<g>
		<path class="st0" d="M29.9,23.7c4.1,6.3,8.3,12.5,12.4,18.8c6.6,10,13.2,20,19.7,30c1.5,2.3,3,4.6,4.5,6.9
			c0.9,1.4,2.7,1.9,4.1,1.1c1.3-0.8,2-2.7,1.1-4.1c-4.1-6.3-8.3-12.5-12.4-18.8c-6.6-10-13.2-20-19.7-30c-1.5-2.3-3-4.6-4.5-6.9
			c-0.9-1.4-2.7-1.9-4.1-1.1C29.7,20.4,29.1,22.3,29.9,23.7L29.9,23.7z"/>
	</g>
	<line class="st1" x1="32.5" y1="22.2" x2="69.2" y2="77.8"/>
</g>
<g>
	<g>
		<path class="st0" d="M64.9,20.4c-3.8,6.2-7.6,12.5-11.3,18.7c-6,10-12.1,19.9-18.1,29.9c-1.4,2.3-2.8,4.6-4.2,6.9
			c-2,3.3,3.2,6.3,5.2,3c3.8-6.2,7.6-12.5,11.3-18.7c6-10,12.1-19.9,18.1-29.9c1.4-2.3,2.8-4.6,4.2-6.9
			C72.1,20.1,66.9,17.1,64.9,20.4L64.9,20.4z"/>
	</g>
	<line class="st1" x1="67.5" y1="21.9" x2="33.9" y2="77.4"/>
</g>
</svg>
