<?xml version="1.0" encoding="utf-8"?>
<!-- Generator: Adobe Illustrator 25.0.1, SVG Export Plug-In . SVG Version: 6.00 Build 0)  -->
<svg version="1.1" id="Layer_1" xmlns="http://www.w3.org/2000/svg" xmlns:xlink="http://www.w3.org/1999/xlink" x="0px" y="0px"
	 viewBox="0 0 256 256" style="enable-background:new 0 0 256 256;" xml:space="preserve">
<style type="text/css">
	.st0{fill:#226F54;}
	.st1{fill:#26547C;}
	.st2{fill:#EF476F;}
	.st3{fill:#FFD166;}
	.st4{fill:#06D6A0;}
	.st5{fill:#FFFCF9;}
</style>
<path class="st0" d="M124,8C60.05,8,8,60.05,8,124c0,50.59,32.58,93.7,77.83,109.52c0.64,0.45,1.41,0.73,2.22,0.75
	c11.31,3.7,23.41,5.73,35.95,5.73c63.95,0,116-52.05,116-116S187.95,8,124,8z M124,16c59.55,0,108,48.45,108,108
	c0,46.64-29.72,86.45-71.2,101.55c-0.44-1.3-0.8-3.22-0.8-4.53V200c0-8.38-4.09-17.5-8.12-23.62c22.2-3.75,47.58-15.27,47.58-58.25
	c0-11.78-3.69-22.17-10.95-30.92c1.59-5.25,3.56-16.33-1.94-30.23c-0.44-1.11-1.36-1.97-2.5-2.34c-1.12-0.34-11.39-3.02-32.7,10.97
	c-8.67-2.23-17.84-3.39-27.36-3.42c-9.47,0.03-18.66,1.19-27.3,3.42c-21.31-14-31.61-11.33-32.72-10.97
	c-1.14,0.38-2.06,1.23-2.5,2.34c-5.52,13.92-3.55,24.98-1.92,30.23c-7.3,8.75-10.98,19.14-10.98,30.92
	c0,42.59,24.92,54.33,46.94,58.23c-2.77,3.5-5.67,8.03-6.95,12.64c-5.69,1.58-17.34,1.62-25.17-11.78
	c-0.28-0.52-7.12-12.67-20.62-13.61c-2.14,0.02-7.58,0.36-8.89,4.52c-1.45,4.61,3.64,8.11,5.83,9.59c0.14,0.09,0.36,0.22,0.5,0.3
	c0.25,0.12,6.08,3.19,10.42,14.12c0.91,2.86,8.86,24.41,37.41,20.61c0.02,3.16,0,4.75-0.03,6.02V221c0,1.3-0.39,3.25-0.83,4.52
	C45.69,210.42,16,170.61,16,124C16,64.45,64.45,16,124,16z M123.03,28.02c-15.59,0.17-31.02,4.28-44.59,12.05
	c-1.92,1.08-2.59,3.53-1.5,5.44c0.73,1.3,2.08,2.03,3.48,2.03c0.67,0,1.34-0.17,1.97-0.53c16.55-9.44,36.08-12.97,54.97-9.94
	c2.17,0.36,4.22-1.12,4.58-3.31c0.34-2.19-1.14-4.23-3.31-4.59C133.45,28.33,128.23,27.95,123.03,28.02z M154.62,33.55
	c-1.55,0.06-3,1.05-3.56,2.59c-0.78,2.08,0.27,4.38,2.34,5.16c2.84,1.06,5.66,2.28,8.41,3.66c0.58,0.3,1.19,0.44,1.8,0.44
	c1.45,0,2.86-0.8,3.58-2.2c0.98-1.95,0.19-4.38-1.78-5.38c-2.98-1.5-6.09-2.86-9.2-4.02C155.69,33.61,155.16,33.53,154.62,33.55z
	 M179.94,62.19c4.3,12.64,1.36,21.8,0.3,24.39c-0.58,1.44-0.28,3.08,0.77,4.22c6.92,7.58,10.44,16.77,10.44,27.33
	c0,40.55-24.03,48.69-47.56,51.3c-1.58,0.17-2.91,1.27-3.38,2.78c-0.48,1.52,0,3.17,1.2,4.22c3.16,2.7,10.3,14.44,10.3,23.58v21.02
	c0,0.08,0.02,3.56,1.16,6.95c-9.28,2.61-19.05,4.03-29.16,4.03c-10.12,0-19.91-1.44-29.2-4.05c1.16-3.41,1.19-6.89,1.19-6.95
	l0.02-2.14c0.02-1.81,0.05-4.27,0-10.88c-0.02-1.22-0.56-2.34-1.5-3.11c-0.94-0.75-2.17-1.03-3.36-0.78
	c-26.86,5.86-32.67-13.53-32.89-14.34c-0.05-0.14-0.09-0.27-0.14-0.41c-3.84-9.75-8.91-14.72-11.92-16.97
	c6.52,2.3,10.16,8.66,10.25,8.8c10.58,18.11,28.05,18.58,37.19,14.48c1.27-0.56,2.14-1.73,2.33-3.09
	c0.81-5.72,7.09-13.28,10.27-16.06c1.19-1.05,1.66-2.7,1.17-4.2c-0.47-1.52-1.78-2.61-3.34-2.78
	c-23.47-2.67-47.47-10.88-47.47-51.39c0-10.55,3.52-19.75,10.47-27.33c1.05-1.14,1.34-2.78,0.75-4.22
	c-1.06-2.59-4.02-11.72,0.27-24.38c3.41,0.11,11.7,1.56,25.67,11.05c0.97,0.66,2.2,0.86,3.33,0.55c8.36-2.33,17.69-3.58,26.94-3.62
	c9.28,0.05,18.61,1.3,26.98,3.62c1.12,0.31,2.34,0.11,3.31-0.55C168.34,63.72,176.64,62.3,179.94,62.19z M85.5,137.58
	c-1.56-0.19-3.14,0.53-3.95,1.97l-4,6.92c-1.11,1.92-0.45,4.36,1.45,5.47c0.62,0.36,1.31,0.53,2,0.53c1.38,0,2.72-0.72,3.45-2
	l4-6.92c1.11-1.91,0.47-4.36-1.45-5.47C86.52,137.81,86.02,137.64,85.5,137.58z M162.5,137.58c-0.52,0.06-1.03,0.23-1.5,0.5
	c-1.92,1.11-2.56,3.56-1.45,5.48l4,6.92c0.73,1.28,2.08,2,3.45,2c0.69,0,1.38-0.19,2-0.55c1.92-1.11,2.56-3.55,1.45-5.45l-4-6.92
	C165.62,138.12,164.05,137.39,162.5,137.58z M144.75,145.38c-0.52-0.08-1.06-0.05-1.61,0.11c-2.12,0.56-3.39,2.75-2.83,4.89
	l2.08,7.73c0.48,1.78,2.09,2.95,3.86,2.95c0.36,0,0.7-0.05,1.05-0.12c2.12-0.58,3.41-2.77,2.83-4.91l-2.06-7.72
	C147.62,146.7,146.28,145.59,144.75,145.38z M103.27,145.38c-1.55,0.22-2.89,1.33-3.33,2.94l-2.06,7.73
	c-0.58,2.12,0.7,4.31,2.83,4.89c0.34,0.09,0.69,0.12,1.05,0.12c1.75,0,3.38-1.17,3.86-2.95l2.08-7.73c0.56-2.12-0.7-4.33-2.83-4.89
	C104.31,145.33,103.78,145.31,103.27,145.38z M124,148c-2.22,0-4,1.78-4,4v8c0,2.22,1.78,4,4,4s4-1.78,4-4v-8
	C128,149.78,126.22,148,124,148z"/>
<rect x="358.32" y="-24.69" class="st1" width="21.07" height="81.39"/>
<rect x="379.39" y="-24.69" class="st2" width="21.07" height="81.39"/>
<rect x="400.46" y="-24.69" class="st3" width="21.07" height="81.39"/>
<rect x="421.54" y="-24.69" class="st4" width="21.07" height="81.39"/>
<rect x="442.61" y="-24.69" class="st5" width="21.07" height="81.39"/>
</svg>
