<?xml version="1.0" encoding="utf-8"?>
<!-- Generator: Adobe Illustrator 25.0.1, SVG Export Plug-In . SVG Version: 6.00 Build 0)  -->
<svg version="1.1" id="Layer_1" xmlns="http://www.w3.org/2000/svg" xmlns:xlink="http://www.w3.org/1999/xlink" x="0px" y="0px"
	 viewBox="0 0 100 100" style="enable-background:new 0 0 100 100;" xml:space="preserve">
<style type="text/css">
	.st0{fill:#226F54;}
	.st1{fill:none;stroke:#226F54;stroke-width:3;stroke-linecap:round;stroke-miterlimit:10;}
	.st2{fill:#DA2C38;}
	.st3{fill:#87C38F;}
	.st4{fill:#F4F0BB;}
	.st5{fill:#43291F;}
</style>
<path class="st0" d="M33.64,57.16c-0.3-0.75-0.6-1.49-0.91-2.24c-0.75-2.09-0.45-4.03,1.06-5.67c1.21-1.34,2.72-2.39,4.68-2.54
	c1.21-0.15,2.26,0.15,3.17,0.74c0.15,0.15,0.31,0.15,0.61,0.3c-0.15-0.45-0.3-0.75-0.45-1.19c-1.51-4.63-3.17-9.26-4.68-13.89
	c-0.6-1.94-1.06-3.88-1.51-5.82c0-1.79,0.15-3.44,0.75-4.93c1.21-2.54,3.47-3.13,5.28-2.83c1.21,0.29,1.96,1.04,2.57,1.94
	c1.36,1.79,2.42,3.73,3.47,5.82c2.12,4.18,3.62,8.66,5.14,13.14c0.3,0.9,0.6,1.64,0.9,2.54c0,0.15,0.15,0.15,0.3,0.3
	c0.31-0.9,0.76-1.79,1.06-2.84c1.21-3.73,2.56-7.46,4.37-10.9c1.06-2.24,2.27-4.63,3.93-6.57c0.15-0.45,0.6-0.74,0.9-1.04
	c2.12-1.94,4.99-1.34,6.35,0.45c1.2,1.49,1.51,3.14,1.35,4.93c-0.3,2.54-1.06,5.08-1.81,7.62c-1.35,4.03-2.87,8.06-4.23,12.09
	c0,0.15-0.15,0.29-0.15,0.45c0.3,0.15,0.6,0.15,0.9,0.3c1.81,0.6,3.62,1.34,4.68,2.98c0.76,1.2,1.21,2.54,1.51,3.89
	c0.45,2.23,0.45,4.47,0.3,6.72c-0.15,2.98-0.75,5.97-1.81,8.66c-2.26,5.52-5.89,9.85-11.32,12.54c-2.72,1.34-5.74,2.24-8.76,2.39
	c-4.23,0.45-8.3-0.15-12.23-1.79c-5.14-2.09-10.27-7.32-11.78-12.09c-0.76-2.39-1.06-4.63-0.76-7.17c0.45-3.13,2.42-5.22,5.44-6.12
	C32.59,57.3,33.19,57.3,33.64,57.16z M32.89,65.52c0.15,0.3,0.46,0.45,0.6,0.74c0.76,0.9,1.36,1.79,2.12,2.69
	c0.9,1.04,1.81,2.09,3.02,2.54c1.06,0.45,1.96,0.45,3.01,0c0.91-0.45,1.06-1.04,0.91-1.94c-0.15-0.3-0.3-0.6-0.45-0.9
	c-1.06-2.09-2.42-4.03-4.08-5.67c-0.91-0.9-1.67-1.79-2.72-2.54c-0.9-0.74-1.81-0.74-2.72-0.15c-1.36,0.89-2.26,2.09-2.72,3.73
	c-0.45,1.64-0.15,3.28,0.46,4.78c1.51,4.03,4.08,7.32,7.7,9.56c5.43,3.44,11.32,4.18,17.36,2.24c6.95-2.24,11.32-7.16,13.74-13.88
	c1.06-2.84,1.21-5.97,1.21-8.96c0-1.49-0.15-2.99-0.6-4.33c-0.45-1.2-1.21-2.24-2.42-2.84c-0.76-0.3-1.36-0.6-2.11-0.9
	c-4.68-1.64-9.51-2.09-14.35-2.53c-1.06,0-1.96,0-3.02,0.29c-0.76,0.3-1.36,0.75-1.36,1.65c-0.15,1.79,0.45,3.28,1.96,4.33
	c1.06,0.75,2.42,1.2,3.78,1.49c3.02,0.6,6.19,0.6,9.36,0.6c0.76,0,1.35,0,2.11,0.15c0.76,0.15,0.91,0.74,1.06,1.49
	c0.15,0.6-0.3,0.9-0.75,1.04c-0.91,0.45-1.66,0.74-2.57,1.04c-3.62,1.35-6.34,3.73-8.3,7.02c-1.36,2.39-1.81,4.93-0.76,7.62
	c0.31,0.6,0.46,1.2,0.6,1.94c0.15,0.6,0.31,1.35,0.15,2.09c-1.51-0.3-2.42-1.05-3.17-2.24c-0.6-1.2-0.9-2.54-1.06-3.88
	c-0.15-0.75-0.15-1.49-0.15-2.24c-0.9,0.59-1.96,0.45-3.01,0.29c0,0.3,0.15,0.45,0.15,0.6c0.46,1.79-0.3,3.43-1.81,4.47
	c-1.21,0.9-2.72,0.9-4.08,0.6c-2.42-0.6-4.23-2.09-5.74-4.03c-0.76-1.04-1.51-2.24-1.66-3.44C32.14,66.86,32.14,66.26,32.89,65.52z
	 M51.01,44.76v-0.15c-1.36-4.03-2.72-8.21-4.23-12.25c-0.91-2.54-1.96-5.22-3.02-7.76c-0.31-0.74-0.76-1.49-1.51-2.09
	c-1.36-0.89-2.87-0.45-3.33,1.04c-0.15,0.6-0.3,1.2-0.15,1.79c0,1.79,0.46,3.44,1.06,5.08c1.81,4.93,3.48,9.85,5.29,14.78
	C46.93,44.02,49.04,44.76,51.01,44.76z M62.48,46.4c0-0.15,0.15-0.15,0.15-0.3c2.11-5.67,4.08-11.34,5.89-17.17
	c0.31-1.19,0.6-2.23,0.45-3.58c-0.15-1.19-0.9-1.79-1.81-1.94c-0.75,0-1.51,0.3-1.96,0.9c-0.91,1.04-1.51,2.24-1.96,3.44
	c-2.42,5.67-4.23,11.5-6.19,17.32c0,0,0,0.15,0,0.3C58.71,45.66,60.52,45.96,62.48,46.4z M48.74,64.32c0-0.3,0-0.6-0.15-0.9
	c-0.45-1.04-0.76-2.09-1.21-3.28c-1.21-2.84-2.72-5.67-4.68-8.21c-0.6-0.74-1.36-1.49-2.26-1.94c-1.96-0.89-4.83,0.9-4.69,3.14v0.15
	c0.31,0.74,0.46,1.64,0.76,2.39c1.66,3.28,3.93,6.12,6.49,8.81c0.76,0.74,1.66,1.49,2.72,1.94C47.23,67.01,48.74,65.96,48.74,64.32z
	 M51.61,62.83c1.21-1.79,2.87-2.99,4.68-4.33c-2.42-0.15-4.68-0.45-6.8-1.2C50.1,59.1,50.86,60.89,51.61,62.83z"/>
<circle class="st1" cx="50" cy="50" r="43.52"/>
<rect x="271" y="-140.7" class="st2" width="44.4" height="143.89"/>
<rect x="315.4" y="-140.7" class="st0" width="44.4" height="143.89"/>
<rect x="359.8" y="-140.7" class="st3" width="44.4" height="143.89"/>
<rect x="404.2" y="-140.7" class="st4" width="44.4" height="143.89"/>
<rect x="448.6" y="-140.7" class="st5" width="44.4" height="143.89"/>
<text transform="matrix(0.6789 0 0 1 275.4395 13)" style="font-family:'ArialMT'; font-size:3.9243px;">Exported from Coolors.co</text>
<text transform="matrix(0.6789 0 0 1 423.6934 13)" style="font-family:'ArialMT'; font-size:3.9243px;">https://coolors.co/da2c38-226f54-87c38f-f4f0bb-43291f</text>
</svg>
