<?xml version="1.0" encoding="utf-8"?>
<!-- Generator: Adobe Illustrator 25.0.1, SVG Export Plug-In . SVG Version: 6.00 Build 0)  -->
<svg version="1.1" id="Layer_1" xmlns="http://www.w3.org/2000/svg" xmlns:xlink="http://www.w3.org/1999/xlink" x="0px" y="0px"
	 viewBox="0 0 100 100" style="enable-background:new 0 0 100 100;" xml:space="preserve">
<style type="text/css">
	.st0{fill:#226F54;}
	.st1{fill:#26547C;}
	.st2{fill:#EF476F;}
	.st3{fill:#FFD166;}
	.st4{fill:#06D6A0;}
	.st5{fill:#FFFCF9;}
	.st6{fill:#DA2C38;}
	.st7{fill:#87C38F;}
	.st8{fill:#F4F0BB;}
	.st9{fill:#43291F;}
</style>
<path class="st0" d="M50,4C24.62,4,4,24.62,4,50s20.62,46,46,46s46-20.62,46-46S75.38,4,50,4z M50,8c23.22,0,42,18.78,42,42
	S73.22,92,50,92S8,73.22,8,50S26.78,8,50,8z M32,24c-3.29,0-6,2.71-6,6s2.71,6,6,6s6-2.71,6-6S35.29,24,32,24z M32,28
	c1.12,0,2,0.88,2,2s-0.88,2-2,2s-2-0.88-2-2S30.88,28,32,28z M28,38c-1.1,0-2,0.9-2,2v30c0,1.1,0.9,2,2,2h8c1.1,0,2-0.9,2-2V40
	c0-1.1-0.9-2-2-2H28z M44,38c-1.1,0-2,0.9-2,2v30c0,1.1,0.9,2,2,2h8c1.1,0,2-0.9,2-2V55c0-2.76,2.24-5,5-5s5,2.24,5,5v15
	c0,1.1,0.9,2,2,2h8c1.1,0,2-0.9,2-2V53c0-8.26-6.74-15-15-15c-2.57,0-4.88,0.84-7,1.98c-0.01-1.1-0.91-1.98-2-1.98H44z M30,42h4v26
	h-4V42z M46,42h4v1.63c0,0.8,0.48,1.52,1.22,1.84c0.73,0.31,1.59,0.16,2.16-0.41C55.37,43.17,58.03,42,61,42c6.1,0,11,4.9,11,11v15
	h-4V55c0-4.94-4.06-9-9-9s-9,4.06-9,9v13h-4V42z"/>
<rect x="228.2" y="-26.39" class="st1" width="21.07" height="81.39"/>
<rect x="249.27" y="-26.39" class="st2" width="21.07" height="81.39"/>
<rect x="270.35" y="-26.39" class="st3" width="21.07" height="81.39"/>
<rect x="291.42" y="-26.39" class="st4" width="21.07" height="81.39"/>
<rect x="312.49" y="-26.39" class="st5" width="21.07" height="81.39"/>
<rect x="165" y="104" class="st6" width="27" height="59.4"/>
<rect x="192" y="104" class="st0" width="27" height="59.4"/>
<rect x="219" y="104" class="st7" width="27" height="59.4"/>
<rect x="246" y="104" class="st8" width="27" height="59.4"/>
<rect x="273" y="104" class="st9" width="27" height="59.4"/>
<text transform="matrix(1 0 0 1 167.7002 167.4482)" style="font-family:'ArialMT'; font-size:1.62px;">Exported from Coolors.co</text>
<text transform="matrix(1 0 0 1 257.8535 167.4482)" style="font-family:'ArialMT'; font-size:1.62px;">https://coolors.co/da2c38-226f54-87c38f-f4f0bb-43291f</text>
</svg>
