<?xml version="1.0" encoding="iso-8859-1"?>
<!-- Generator: Adobe Illustrator 25.0.1, SVG Export Plug-In . SVG Version: 6.00 Build 0)  -->
<svg version="1.1" id="Layer_1" xmlns="http://www.w3.org/2000/svg" xmlns:xlink="http://www.w3.org/1999/xlink" x="0px" y="0px"
	 viewBox="0 0 1500 1500" style="enable-background:new 0 0 1500 1500;" xml:space="preserve">
<circle style="fill:#F0EAD2;stroke:#231F20;stroke-width:31.2529;stroke-linecap:round;stroke-miterlimit:10;" cx="722.544" cy="726.548" r="533.04"/>
<g>
	<path style="fill:#FF206E;" d="M463.402,454.306c9.904-18.317,21.753-36.33,42.843-48.165
		c62.903-35.298,152.521,16.157,193.936,49.069c39.192,31.145,49.964,80.81,35.041,128.326
		c-12.198,26.845-30.57,44.216-54.54,57.138c-52.965,26.419-143.973,31.741-135.351,107.102
		c3.598,75.935,53.562,156.746,5.77,228.381c-7.64,0.857-20.47,1.212-33.613-4.757c-20.92-9.501-31.671-30.046-38.597-48.059
		C367.056,632.482,463.402,454.306,463.402,454.306z"/>
	<g>
		<path d="M471.498,459.038c3.863-7.122,7.964-14.128,12.726-20.692c0.507-0.699,1.022-1.392,1.542-2.08
			c0.897-1.187-0.808,1.007,0.126-0.155c0.272-0.338,0.541-0.679,0.815-1.016c1.378-1.695,2.807-3.348,4.289-4.953
			c2.829-3.063,5.852-5.945,9.069-8.598c0.299-0.247,2.534-1.967,1.349-1.088c0.874-0.649,1.755-1.286,2.65-1.905
			c1.834-1.268,3.716-2.463,5.642-3.586c1.675-0.977,3.382-1.899,5.118-2.763c0.821-0.409,1.648-0.805,2.481-1.188
			c0.504-0.231,3.269-1.339,1.346-0.607c6.795-2.587,13.665-4.613,20.859-5.758c0.51-0.081,1.023-0.149,1.533-0.232
			c-0.095,0.015-1.673,0.2-0.57,0.078c0.901-0.099,1.8-0.214,2.703-0.303c1.811-0.179,3.626-0.314,5.444-0.405
			c3.799-0.191,7.607-0.194,11.407-0.034c3.72,0.157,7.432,0.472,11.128,0.924c0.399,0.049,0.798,0.1,1.196,0.151
			c-1.945-0.247-0.499-0.065-0.098-0.004c0.799,0.123,1.598,0.24,2.396,0.369c2.003,0.324,4.001,0.687,5.991,1.083
			c7.662,1.527,15.22,3.567,22.645,5.992c3.679,1.202,7.327,2.497,10.943,3.877c1.808,0.69,3.608,1.401,5.4,2.131
			c0.767,0.313,1.532,0.631,2.297,0.949c-1.711-0.711,1.081,0.47,1.563,0.68c13.803,6.021,27.126,13.135,39.94,21.038
			c5.849,3.607,11.594,7.385,17.22,11.332c2.532,1.776,5.04,3.588,7.521,5.435c1.174,0.874,2.338,1.759,3.502,2.647
			c1.394,1.064-1.336-1.051,0.022,0.02c0.619,0.488,1.242,0.972,1.858,1.464c6.476,5.166,12.409,10.996,17.595,17.461
			c0.265,0.331,0.53,0.662,0.791,0.997c-0.234-0.3-0.994-1.336,0.073,0.118c0.498,0.679,0.998,1.356,1.486,2.043
			c1.211,1.707,2.37,3.45,3.478,5.226c2.049,3.285,3.918,6.682,5.597,10.171c0.418,0.868,0.824,1.742,1.219,2.621
			c0.225,0.502,0.444,1.006,0.663,1.511c-0.059-0.135-0.535-1.345-0.15-0.338c0.736,1.925,1.5,3.835,2.169,5.786
			c1.248,3.641,2.304,7.348,3.166,11.099c0.402,1.748,0.762,3.505,1.082,5.269c0.172,0.953,0.333,1.907,0.482,2.864
			c0.085,0.547,0.163,1.096,0.243,1.644c-0.132-0.902-0.116-0.948-0.013-0.016c0.431,3.889,0.733,7.782,0.819,11.695
			c0.09,4.101-0.025,8.207-0.332,12.297c-0.139,1.854-0.318,3.705-0.534,5.552c-0.067,0.571-0.136,1.142-0.213,1.712
			c0.021-0.159,0.227-1.453,0.037-0.351c-0.197,1.14-0.351,2.288-0.549,3.428c-0.699,4.037-1.578,8.041-2.625,12.002
			c-0.265,1.001-0.54,2-0.826,2.995c-0.15,0.521-0.766,2.778-0.616,2.293c0.265-0.861-0.211,0.493-0.245,0.568
			c-0.255,0.557-0.527,1.108-0.795,1.658c-0.465,0.953-0.943,1.9-1.431,2.842c-1.96,3.777-4.109,7.456-6.456,11.006
			c-1.019,1.542-2.076,3.059-3.17,4.549c-0.29,0.395-1.856,2.42-0.826,1.121c-0.692,0.873-1.39,1.741-2.106,2.595
			c-4.946,5.909-10.506,11.218-16.497,16.055c-1.393,1.125-0.344,0.279-0.05,0.054c-0.328,0.251-0.657,0.499-0.987,0.746
			c-0.772,0.578-1.551,1.148-2.336,1.709c-1.693,1.21-3.416,2.379-5.163,3.509c-3.314,2.145-6.714,4.195-10.205,6.041
			c-2.434,1.288-4.961,2.42-7.479,3.533c-0.633,0.28-1.269,0.552-1.903,0.83c-1.529,0.669,1.925-0.791-0.241,0.103
			c-1.401,0.578-2.803,1.15-4.212,1.707c-11.004,4.352-22.252,8.055-33.445,11.881c-23.012,7.866-46.654,16.073-66.003,31.241
			c-8.646,6.777-16.239,15.41-20.899,25.425c-5.455,11.724-7.513,24.575-6.501,37.455c1.391,17.707,3.667,35.107,7.373,52.493
			c3.736,17.524,8.278,34.864,12.088,52.372c1.867,8.58,3.562,17.202,4.875,25.885c0.162,1.074,0.318,2.148,0.469,3.224
			c0.008,0.057,0.208,1.573,0.081,0.594c-0.14-1.084,0.1,0.823,0.128,1.053c0.283,2.292,0.536,4.587,0.752,6.886
			c0.401,4.257,0.681,8.527,0.807,12.801c0.126,4.239,0.104,8.483-0.096,12.72c-0.1,2.111-0.243,4.22-0.433,6.325
			c-0.082,0.902-0.172,1.803-0.271,2.703c-0.045,0.411-0.503,3.717-0.236,2.001c-1.344,8.644-3.351,17.115-6.415,25.322
			c-0.384,1.03-0.785,2.052-1.195,3.072c0,0-0.602,1.43-0.259,0.631c0.345-0.802-0.284,0.631-0.283,0.629
			c-0.928,2.054-1.886,4.09-2.917,6.095c-2.139,4.158-4.531,8.171-7.11,12.07c2.699-1.548,5.397-3.096,8.096-4.644
			c-13.546,1.468-24.957-0.086-36.439-7.647c-0.47-0.31-0.937-0.626-1.398-0.95c-0.167-0.117-2.384-1.788-0.791-0.538
			c-1.305-1.024-2.56-2.115-3.772-3.247c-2.199-2.053-4.248-4.264-6.155-6.591c-0.157-0.192-1.784-2.342-0.545-0.668
			c-0.484-0.654-0.966-1.308-1.434-1.972c-0.778-1.104-1.529-2.227-2.255-3.366c-1.726-2.707-3.309-5.504-4.775-8.36
			c-1.317-2.564-2.508-5.18-3.684-7.81c-1.056-2.362,0.71,1.792-0.252-0.589c-0.189-0.469-0.384-0.937-0.573-1.406
			c-0.797-1.981-1.555-3.977-2.314-5.973c-2.91-7.653-5.721-15.344-8.428-23.071c-5.395-15.403-10.374-30.952-14.895-46.634
			c-8.032-27.864-14.625-56.148-19.532-84.73c-1.154-6.725-2.215-13.467-3.178-20.222c-0.205-1.438-0.404-2.878-0.602-4.317
			c-0.393-2.851,0.241,1.904-0.125-0.941c-0.11-0.854-0.223-1.708-0.332-2.563c-0.432-3.38-0.839-6.763-1.22-10.149
			c-1.372-12.159-2.421-24.355-3.127-36.571c-1.282-22.163-1.438-44.395-0.339-66.569c0.482-9.728,1.205-19.444,2.182-29.135
			c0.468-4.638,0.993-9.27,1.579-13.895c0.124-0.977,0.252-1.954,0.379-2.93c0.275-2.114-0.315,2.275-0.023,0.172
			c0.053-0.384,0.105-0.768,0.159-1.153c0.315-2.271,0.645-4.539,0.99-6.806c4.084-26.854,10.183-53.493,19.016-79.198
			c1.451-4.222,2.979-8.419,4.598-12.58c0.664-1.706,1.343-3.405,2.039-5.098c0.291-0.708,0.593-1.413,0.883-2.122
			c-1.58,3.867-0.345,0.822,0.08-0.158c1.405-3.237,2.926-6.407,4.48-9.573C471.36,459.291,471.43,459.164,471.498,459.038
			c2.33-4.314,1.215-10.409-3.364-12.828c-4.368-2.308-10.339-1.244-12.828,3.364c-1.48,2.74-2.759,5.6-4.019,8.444
			c-3.873,8.747-7.332,17.673-10.419,26.726c-4.5,13.194-8.263,26.637-11.429,40.211c-4.374,18.753-7.549,37.76-9.862,56.873
			c-2.763,22.827-4.085,45.823-4.125,68.814c-0.048,27.402,1.728,54.799,5.097,81.99c4.005,32.32,10.066,64.341,18.122,95.896
			c4.424,17.329,9.425,34.51,14.945,51.521c5.607,17.279,11.464,34.63,18.492,51.391c5.781,13.786,13.218,27.296,24.556,37.331
			c13.397,11.858,30.713,17.827,48.583,17.195c1.428-0.05,2.854-0.142,4.277-0.273c4.375-0.403,7.347-1.429,9.956-5.233
			c2.446-3.568,4.609-7.371,6.601-11.208c3.995-7.693,7.288-15.828,9.672-24.164c4.476-15.652,5.857-32.201,5.094-48.424
			c-1.564-33.229-10.984-65.395-18.228-97.67c-1.787-7.963-3.452-15.955-4.83-23.999c-0.314-1.835-0.614-3.673-0.896-5.514
			c-0.141-0.917-0.277-1.834-0.409-2.753c-0.066-0.458-0.13-0.917-0.194-1.375c0.23,1.651-0.05-0.406-0.089-0.713
			c-0.497-3.944-0.902-7.901-1.192-11.866c-0.462-6.329-1.122-12.662-0.747-19.014c0.074-1.263,0.194-2.521,0.327-3.779
			c0.023-0.213,0.179-0.724,0.112-0.923c0.003,0.009-0.322,1.985-0.12,0.974c0.158-0.789,0.26-1.591,0.413-2.381
			c0.48-2.483,1.115-4.934,1.91-7.335c0.355-1.072,0.817-2.112,1.163-3.185c0.179-0.555-0.857,1.87-0.075,0.184
			c0.311-0.67,0.616-1.341,0.944-2.003c1.054-2.125,2.243-4.181,3.554-6.158c0.601-0.906,1.284-1.761,1.88-2.669
			c0.314-0.477-1.298,1.591-0.133,0.176c0.462-0.561,0.92-1.125,1.395-1.677c1.553-1.804,3.206-3.52,4.938-5.153
			c1.768-1.667,3.646-3.178,5.512-4.73c0.435-0.362-1.593,1.177-0.096,0.089c0.462-0.335,0.918-0.677,1.382-1.009
			c1.092-0.783,2.201-1.542,3.324-2.281c4.302-2.832,8.804-5.354,13.407-7.661c2.382-1.194,4.794-2.331,7.225-3.421
			c1.139-0.511,2.283-1.008,3.428-1.503c2.024-0.873-1.176,0.477,0.365-0.154c0.682-0.279,1.362-0.562,2.045-0.839
			c5.141-2.085,10.342-4.02,15.567-5.883c10.507-3.746,21.117-7.192,31.629-10.923c10.421-3.699,20.941-7.582,30.8-12.621
			c13.114-6.702,25.487-15.981,35.547-26.727c10.649-11.375,20.74-25.688,24.948-40.842c4.123-14.847,6.079-30.555,5.162-45.956
			c-1.836-30.824-14.773-60.246-37.591-81.299c-9.28-8.563-19.862-15.966-30.367-22.943c-11.16-7.412-22.74-14.206-34.697-20.251
			c-26.254-13.274-54.631-23.529-84.167-25.65c-30.188-2.168-60.515,6.507-82.549,27.858c-10.811,10.475-19,23.329-26.136,36.489
			c-2.337,4.31-1.21,10.411,3.364,12.828C463.044,464.713,469.001,463.642,471.498,459.038z"/>
	</g>
</g>
<g>
	<path style="fill:#F0EAD2;" d="M600.323,598.632c-13.72-11.38-30.765-19.322-44.954-30.257s-25.859-26.488-23.549-43.208
		c2.31-16.721,24.293-31.613,41.309-24.26c9.401,4.063,14.319,13.022,18.603,21.387c1.659-10.013,5.125-20.336,13.236-27.728
		c8.111-7.392,21.879-10.811,31.508-5.519c9.681,5.321,11.812,16.654,13.061,26.687c0.951,7.636,1.886,15.477-0.37,22.991
		c-7.294,24.292-44.969,37.648-45.858,62.577"/>
	<g>
		<path d="M606.953,592.002c-7.539-6.225-15.701-11.523-24.01-16.645c-7.768-4.788-15.595-9.515-22.842-15.078
			c0.633,0.489,1.265,0.977,1.898,1.466c-5.251-4.065-10.089-8.663-14.174-13.91c0.489,0.633,0.977,1.265,1.466,1.898
			c-2.692-3.504-5.016-7.268-6.755-11.337c0.315,0.747,0.63,1.493,0.945,2.24c-1.252-3.004-2.156-6.121-2.615-9.346
			c0.112,0.831,0.223,1.662,0.335,2.492c-0.375-2.869-0.384-5.746-0.005-8.616c-0.112,0.831-0.223,1.662-0.335,2.492
			c0.297-2.045,0.862-4.019,1.649-5.928c-0.315,0.747-0.63,1.493-0.945,2.24c1.006-2.364,2.321-4.559,3.876-6.602
			c-0.489,0.633-0.977,1.265-1.466,1.898c1.906-2.454,4.117-4.629,6.574-6.529c-0.633,0.489-1.265,0.977-1.898,1.466
			c2.503-1.9,5.212-3.483,8.108-4.705c-0.747,0.315-1.493,0.63-2.24,0.945c2.559-1.051,5.215-1.8,7.957-2.181
			c-0.831,0.112-1.662,0.223-2.492,0.335c2.271-0.289,4.548-0.316,6.822-0.04c-0.831-0.112-1.662-0.223-2.492-0.335
			c2.072,0.28,4.078,0.807,6.015,1.594c-0.747-0.315-1.493-0.63-2.24-0.945c2.1,0.889,4.047,2.04,5.856,3.428
			c-0.633-0.489-1.265-0.977-1.898-1.466c2.135,1.685,3.999,3.643,5.672,5.783c-0.489-0.633-0.977-1.265-1.466-1.898
			c2.926,3.81,5.197,8.045,7.383,12.307c1.698,3.311,5.845,4.946,9.342,4.476c1.686-0.227,3.087-0.805,4.435-1.846
			c1.48-1.143,3.038-2.955,3.36-4.87c0.822-4.896,2.042-9.718,3.964-14.304c-0.315,0.747-0.63,1.493-0.945,2.24
			c1.36-3.171,3.045-6.17,5.135-8.919c-0.489,0.633-0.977,1.265-1.466,1.898c1.69-2.173,3.596-4.162,5.757-5.871
			c-0.633,0.489-1.265,0.977-1.898,1.466c2.219-1.711,4.639-3.102,7.215-4.202c-0.747,0.315-1.493,0.63-2.24,0.945
			c2.624-1.087,5.349-1.85,8.161-2.25c-0.831,0.112-1.662,0.223-2.492,0.335c2.396-0.311,4.798-0.348,7.197-0.046
			c-0.831-0.112-1.662-0.223-2.492-0.335c1.867,0.264,3.675,0.729,5.424,1.437c-0.747-0.315-1.493-0.63-2.24-0.945
			c1.642,0.699,3.162,1.59,4.576,2.677c-0.633-0.489-1.265-0.977-1.898-1.466c1.341,1.069,2.524,2.278,3.576,3.631
			c-0.489-0.633-0.977-1.265-1.466-1.898c1.291,1.714,2.324,3.577,3.172,5.546c-0.315-0.747-0.63-1.493-0.945-2.24
			c1.872,4.478,2.76,9.27,3.411,14.058c-0.112-0.831-0.223-1.662-0.335-2.492c0.863,6.469,1.716,13.051,0.92,19.57
			c0.112-0.831,0.223-1.662,0.335-2.492c-0.386,2.848-1.106,5.604-2.21,8.257c0.315-0.747,0.63-1.493,0.945-2.24
			c-1.421,3.334-3.348,6.402-5.548,9.274c0.489-0.633,0.977-1.265,1.466-1.898c-5.521,7.133-12.47,12.992-19.106,19.041
			c-6.751,6.154-13.664,12.769-18.06,20.885c-2.848,5.258-4.508,10.869-4.754,16.853c-0.202,4.907,4.457,9.596,9.376,9.376
			c5.253-0.235,9.16-4.119,9.376-9.376c0.034-0.816,0.102-1.627,0.207-2.437c-0.112,0.831-0.223,1.662-0.335,2.492
			c0.333-2.384,0.994-4.687,1.924-6.905c-0.315,0.747-0.63,1.493-0.945,2.24c1.34-3.119,3.164-5.982,5.236-8.664
			c-0.489,0.633-0.977,1.265-1.466,1.898c6.416-8.216,14.735-14.699,22.256-21.841c8.32-7.9,16.473-17.243,19.138-28.714
			c1.955-8.416,1.122-16.868-0.003-25.32c-0.976-7.332-2.255-14.472-5.783-21.082c-3.761-7.047-10.309-12.398-17.982-14.622
			c-7.252-2.102-15.574-1.488-22.591,1.197c-3.549,1.358-7.01,2.944-10.059,5.236c-3.849,2.893-6.905,6.021-9.789,9.88
			c-4.393,5.88-7.168,13.079-8.823,20.189c-0.382,1.64-0.7,3.293-0.978,4.954c5.712-0.747,11.424-1.493,17.137-2.24
			c-3.108-6.063-6.516-12.03-11.244-17.005c-4.874-5.128-11.578-9.226-18.641-10.324c-6.798-1.058-13.664-0.573-20.1,2.002
			c-6.394,2.559-12.264,6.202-17.001,11.268c-4.462,4.773-8.145,10.655-9.667,17.068c-1.694,7.137-1.228,14.913,1.037,21.872
			c4.736,14.551,15.495,25.798,27.468,34.824c13.056,9.842,27.868,17.063,40.848,27.017c-0.633-0.489-1.265-0.977-1.898-1.466
			c1.034,0.799,2.055,1.613,3.063,2.445c1.969,1.626,3.986,2.746,6.63,2.746c2.3,0,5.046-1.021,6.63-2.746
			c1.64-1.787,2.858-4.133,2.746-6.63C609.594,596.285,608.841,593.561,606.953,592.002L606.953,592.002z"/>
	</g>
</g>
<g>
	<path style="fill:#FF206E;" d="M845.976,1096.856c-16.407-19.109-32.814-38.219-49.221-57.328
		c-18.707-21.788-37.461-43.637-53.539-67.431c-41.668-61.664-64.312-135.996-64.099-210.418
		c0.075-26.268,7.27-58.203,32.411-65.813c19.745-5.977,40.95,7.607,51.532,25.317c10.582,17.71,13.471,38.773,18.202,58.853
		c5.216,22.136,12.91,43.687,22.892,64.121c4.627,9.471,10.078,19.077,18.872,24.888c8.794,5.812,21.806,6.523,29.101-1.086
		c9.943-10.371,3.872-27.282-2.042-40.375c-8.447-18.698-15.638-39.392-11.153-59.414c4.485-20.022,25.071-37.607,44.729-31.733
		c16.346,4.884,24.968,22.901,27.99,39.691c3.022,16.79,2.558,34.541,9.638,50.063s25.774,27.893,41.067,20.334
		c14.438-7.136,16.959-26.908,13.692-42.678c-5.698-27.51-22.619-51.45-30.361-78.456c-7.742-27.006-2.021-62.304,23.91-73.115
		c18.272-7.618,40.156,0.476,53.91,14.713s20.964,33.442,26.881,52.333c26.213,83.697,33.945,173.129,22.486,260.083
		c-3.59,27.245-16.798,61.036-44.273,60.51c-21.531-0.412-35.156-22.331-46.213-40.811c-13.276-22.188-29.964-44.212-54.06-53.589
		c-24.096-9.377-56.755-0.577-65.193,23.864c-7.33,21.231,5.271,43.463,13.086,64.52s7.253,50.911-13.696,59.011
		c-20.544,7.944-40.355-12.195-53.257-30.047"/>
	<g>
		<path d="M852.605,1090.226c-14.38-16.749-28.76-33.497-43.141-50.246c-13.652-15.9-27.418-31.723-40.353-48.219
			c-0.688-0.877-1.373-1.756-2.056-2.638c1.076,1.389-0.055-0.074-0.32-0.42c-0.424-0.553-0.847-1.107-1.268-1.661
			c-1.518-1.996-3.021-4.004-4.508-6.023c-3.139-4.264-6.206-8.581-9.18-12.962c-5.381-7.926-10.45-16.063-15.195-24.386
			c-4.734-8.304-9.147-16.791-13.23-25.434c-2.097-4.439-4.096-8.922-6.027-13.436c0.778,1.818-0.291-0.7-0.553-1.334
			c-0.493-1.194-0.981-2.39-1.462-3.589c-0.866-2.158-1.712-4.324-2.538-6.498c-6.838-17.994-12.304-36.51-16.332-55.334
			c-1-4.674-1.912-9.367-2.734-14.076c-0.4-2.291-0.778-4.585-1.136-6.882c-0.179-1.149-0.352-2.298-0.52-3.449
			c-0.093-0.639-0.185-1.278-0.275-1.918c-0.072-0.509-0.421-2.855-0.084-0.579c-1.396-9.438-2.145-19.023-2.663-28.545
			c-0.483-8.875-0.791-17.822-0.407-26.707c0.158-3.664,0.49-7.307,0.921-10.947c0.162-1.369-0.372,2.462-0.052,0.414
			c0.062-0.395,0.117-0.791,0.178-1.185c0.138-0.888,0.287-1.774,0.447-2.658c0.336-1.859,0.719-3.71,1.157-5.548
			c0.86-3.608,1.928-7.17,3.265-10.63c0.138-0.357,0.283-0.712,0.423-1.068c0.58-1.487-0.182,0.535-0.281,0.66
			c0.509-0.635,0.825-1.831,1.187-2.57c0.735-1.501,1.533-2.971,2.4-4.4c0.839-1.383,1.986-2.658,2.754-4.068
			c-1.068,1.964-0.835,1.036-0.295,0.417c0.294-0.337,0.574-0.686,0.87-1.022c0.589-0.668,1.199-1.318,1.831-1.945
			c0.504-0.5,1.021-0.987,1.552-1.458c0.332-0.294,0.677-0.573,1.011-0.864c0.746-0.65,1.338-0.457-0.431,0.317
			c1.48-0.647,2.852-1.951,4.302-2.727c0.635-0.34,1.654-0.616,2.204-1.082c-1.107,0.94-1.61,0.63-0.709,0.304
			c0.351-0.127,0.697-0.266,1.048-0.391c1.949-0.692,4.149-0.826,6.045-1.547c-1.618,0.615-1.429,0.146-0.586,0.089
			c0.53-0.036,1.058-0.092,1.589-0.12c0.952-0.05,1.906-0.062,2.859-0.033c0.954,0.028,1.898,0.128,2.848,0.2
			c1.295,0.098-1.878-0.331-0.603-0.079c0.625,0.123,1.255,0.218,1.879,0.351c1.886,0.4,3.74,0.936,5.552,1.591
			c0.411,0.148,1.201,0.286,1.514,0.577c-0.118-0.109-2.022-0.918-0.444-0.178c0.99,0.464,1.975,0.933,2.939,1.449
			c1.752,0.938,3.45,1.978,5.086,3.106c0.366,0.252,0.73,0.509,1.09,0.77c0.112,0.081,1.808,1.453,0.653,0.477
			c-1.165-0.984,0.523,0.449,0.618,0.529c0.515,0.431,1.023,0.872,1.523,1.32c1.42,1.273,2.777,2.614,4.071,4.015
			c0.684,0.741,1.35,1.498,1.996,2.271c0.213,0.255,0.689,0.709,0.848,1.039c-0.964-1.989-0.24-0.315,0.156,0.229
			c2.703,3.712,4.94,7.75,6.879,11.907c0.432,0.927,0.86,1.857,1.25,2.803c-0.769-1.864-0.111-0.226,0.075,0.244
			c0.236,0.595,0.466,1.192,0.691,1.79c0.857,2.281,1.638,4.59,2.361,6.916c1.418,4.562,2.61,9.191,3.701,13.842
			c2.216,9.444,4.029,18.978,6.41,28.383c2.518,9.948,5.535,19.769,9.038,29.415c3.73,10.27,7.98,20.374,12.709,30.224
			c4.11,8.561,8.734,17.099,15.487,23.902c7.11,7.163,16.403,11.699,26.569,11.983c10.173,0.284,19.862-4.477,25.313-13.146
			c5.177-8.234,4.924-18.519,2.774-27.653c-0.956-4.062-2.363-8.008-3.943-11.864c-0.975-2.38-1.985-4.746-3.038-7.092
			c-0.487-1.086-0.976-2.172-1.454-3.263c-0.218-0.498-0.433-0.997-0.65-1.496c-1.083-2.492,0.705,1.744-0.328-0.774
			c-1.972-4.807-3.799-9.672-5.297-14.65c-1.372-4.557-2.842-9.457-3.224-14.221c0.164,2.045,0.04,0.225-0.016-0.293
			c-0.072-0.663-0.135-1.327-0.189-1.991c-0.085-1.061-0.148-2.124-0.185-3.188c-0.091-2.656-0.028-5.317,0.218-7.964
			c0.047-0.505,0.051-1.107,0.169-1.589c-0.457,1.864-0.08,0.544,0.003,0.112c0.242-1.266,0.453-2.531,0.756-3.785
			c0.452-1.871,1.074-3.67,1.738-5.473c0.74-2.01-0.689,1.404-0.064,0.17c0.242-0.478,0.454-0.974,0.694-1.454
			c0.385-0.77,0.793-1.529,1.221-2.275c0.536-0.935,1.106-1.851,1.706-2.746c0.24-0.358,0.486-0.713,0.736-1.064
			c0.187-0.264,0.377-0.525,0.572-0.784c0.414-0.554,0.254-0.348-0.48,0.617c0.698-0.506,1.305-1.573,1.882-2.209
			c0.648-0.714,1.317-1.408,2.008-2.08c0.612-0.594,1.24-1.17,1.885-1.728c0.401-0.347,0.818-0.675,1.222-1.017
			c0.543-0.434,0.328-0.268-0.645,0.496c0.253-0.189,0.509-0.374,0.767-0.555c1.53-1.084,3.133-2.064,4.803-2.918
			c0.459-0.235,0.928-0.447,1.389-0.676c1.311-0.649-0.539,0.272-0.545,0.22c-0.019-0.177,2.531-0.893,2.883-0.997
			c0.873-0.257,1.756-0.476,2.647-0.656c0.329-0.067,1.259-0.064,1.488-0.264c-0.136,0.119-2.371,0.221-0.693,0.121
			c0.908-0.054,1.809-0.114,2.72-0.106c0.507,0.005,1.013,0.021,1.519,0.054c0.389,0.025,2.085,0.383,0.581,0.018
			c-1.63-0.396,0.353,0.084,0.582,0.13c0.408,0.082,0.815,0.174,1.219,0.275c0.904,0.226,1.795,0.499,2.672,0.812
			c1.776,0.633-0.272,0.147-0.27-0.164c0,0.03,1.161,0.541,1.089,0.506c0.892,0.437,1.762,0.919,2.607,1.441
			c0.221,0.137,2.301,1.736,2.446,1.678c-0.13,0.052-1.759-1.496-0.506-0.353c0.293,0.267,0.602,0.517,0.896,0.783
			c1.492,1.349,2.82,2.834,4.113,4.371c0.481,0.572,0.448,1.143-0.35-0.453c0.164,0.329,0.496,0.681,0.714,0.993
			c0.589,0.842,1.149,1.703,1.683,2.58c0.975,1.6,1.861,3.254,2.669,4.944c0.226,0.474,0.446,0.951,0.66,1.43
			c0.043,0.096,0.086,0.192,0.129,0.288c0.406,0.936,0.337,0.772-0.206-0.493c0.486,0.434,0.682,1.742,0.909,2.366
			c0.721,1.985,1.353,4.002,1.902,6.04c1.112,4.128,1.803,8.327,2.425,12.552c0.232,1.575-0.275-2.296,0.03,0.253
			c0.063,0.524,0.131,1.048,0.195,1.573c0.143,1.181,0.28,2.362,0.415,3.544c0.284,2.495,0.557,4.991,0.854,7.484
			c1.214,10.18,2.651,20.387,6.588,29.924c3.804,9.214,9.648,16.803,17.643,22.778c6.933,5.181,15.99,8.679,24.748,8.11
			c9.501-0.616,18.007-5.08,23.827-12.614c5.462-7.07,7.821-15.602,8.633-24.385c1.707-18.474-5.741-36.779-13.054-53.317
			c-3.87-8.751-8.087-17.345-11.886-26.129c-0.205-0.474-0.408-0.949-0.612-1.424c0.786,1.832,0.087,0.203-0.104-0.259
			c-0.444-1.073-0.88-2.148-1.306-3.228c-0.946-2.396-1.846-4.811-2.683-7.248c-1.312-3.821-2.495-7.693-3.355-11.642
			c-0.372-1.706-0.689-3.425-0.954-5.151c-0.038-0.249-0.364-2.185-0.078-0.495c0.285,1.685-0.018-0.246-0.047-0.503
			c-0.108-0.975-0.2-1.953-0.274-2.931c-0.276-3.625-0.321-7.268-0.121-10.897c0.091-1.66,0.258-3.307,0.43-4.96
			c0.21-2.019-0.322,1.801-0.065,0.472c0.092-0.474,0.145-0.958,0.225-1.434c0.159-0.95,0.337-1.896,0.535-2.838
			c0.722-3.441,1.759-6.758,2.974-10.052c0.286-0.776,0.999-1.473-0.202,0.438c0.182-0.289,0.313-0.712,0.451-1.012
			c0.344-0.752,0.706-1.495,1.086-2.229c0.793-1.533,1.664-3.027,2.617-4.466c0.447-0.675,0.957-1.311,1.398-1.989
			c0.69-1.061-1.538,1.841-0.31,0.411c0.233-0.272,0.456-0.552,0.689-0.824c1.165-1.357,2.419-2.64,3.756-3.829
			c0.522-0.465,1.191-0.864,1.648-1.386c-1.245,1.42-1.253,0.929-0.606,0.484c0.373-0.256,0.738-0.525,1.114-0.778
			c1.45-0.976,2.967-1.85,4.538-2.616c0.42-0.205,0.863-0.376,1.277-0.593c1.134-0.593-2.301,0.8-0.221,0.118
			c0.837-0.274,1.659-0.589,2.504-0.84c0.943-0.279,1.896-0.52,2.858-0.725c0.532-0.114,1.07-0.199,1.603-0.308
			c1.893-0.385-1.995,0.13,0.09-0.015c1.96-0.136,3.895-0.255,5.862-0.18c0.872,0.034,1.744,0.093,2.613,0.178
			c0.263,0.026,2.219,0.483,0.711,0.07c-1.5-0.41,0.705,0.144,1.031,0.206c1.849,0.351,3.677,0.808,5.475,1.362
			c1.066,0.328,2.122,0.69,3.165,1.083c0.291,0.109,1.002,0.501,1.251,0.489c-1.1-0.474-1.33-0.57-0.69-0.291
			c0.309,0.134,0.616,0.272,0.922,0.414c3.82,1.759,7.303,3.975,10.734,6.388c1.158,0.814-1.729-1.451-0.028-0.018
			c0.344,0.29,0.697,0.568,1.04,0.859c0.771,0.651,1.525,1.321,2.262,2.01c1.635,1.528,3.179,3.152,4.651,4.837
			c0.728,0.834,1.411,1.705,2.128,2.547c0.964,1.133-1.293-1.789,0.112,0.14c0.289,0.397,0.585,0.788,0.872,1.186
			c1.437,1.99,2.786,4.044,4.056,6.144c2.3,3.803,4.34,7.759,6.185,11.801c0.515,1.127,1.036,2.26,1.502,3.408
			c-0.762-1.879,0.204,0.526,0.477,1.211c0.924,2.315,1.799,4.649,2.637,6.997c1.515,4.244,2.906,8.531,4.247,12.832
			c6.214,19.935,11.379,40.197,15.487,60.67c2.027,10.1,3.796,20.252,5.307,30.442c0.367,2.479,0.719,4.96,1.057,7.443
			c-0.266-1.953,0.128,0.994,0.212,1.648c0.178,1.381,0.351,2.762,0.519,4.144c0.639,5.251,1.21,10.511,1.713,15.777
			c3.928,41.157,3.673,82.718-0.84,123.817c-0.273,2.491-0.563,4.98-0.867,7.467c-0.152,1.244-0.309,2.487-0.469,3.729
			c-0.071,0.551-0.158,1.104-0.216,1.657c0.306-2.932,0.11-0.855,0.02-0.255c-0.531,3.554-1.206,7.087-2.027,10.586
			c-0.841,3.581-1.836,7.127-3.008,10.614c-0.568,1.691-1.179,3.368-1.835,5.027c-0.145,0.367-0.296,0.73-0.442,1.097
			c-0.749,1.881,0.734-1.539,0.141-0.342c-0.474,0.958-0.875,1.956-1.34,2.92c-1.482,3.071-3.156,6.055-5.073,8.876
			c-0.474,0.698-1.249,1.478-1.6,2.239c0.062-0.133,1.447-1.79,0.465-0.61c-0.23,0.276-0.453,0.559-0.685,0.834
			c-1.135,1.353-2.344,2.646-3.631,3.856c-0.505,0.474-1.022,0.936-1.551,1.384c-1.961,1.657,1.544-1.053-0.537,0.424
			c-1.312,0.931-2.688,1.77-4.122,2.499c-0.377,0.191-0.761,0.366-1.14,0.552c-0.705,0.346-1.157,0.109,0.841-0.347
			c-0.643,0.146-1.287,0.487-1.918,0.689c-0.817,0.262-1.646,0.489-2.483,0.68c-0.339,0.077-0.679,0.148-1.02,0.213
			c-0.921,0.176-2.05-0.058,0.406-0.012c-1.652-0.031-3.31,0.259-4.979,0.195c-0.408-0.016-0.817-0.039-1.225-0.071
			c-0.232-0.018-2.259-0.195-0.557-0.031c1.478,0.143,0.15,0.005-0.23-0.065c-0.582-0.108-1.161-0.232-1.736-0.373
			c-0.855-0.209-1.701-0.454-2.536-0.733c-0.369-0.124-0.732-0.27-1.101-0.391c-1.888-0.62,1.495,0.786,0.35,0.169
			c-1.643-0.886-3.318-1.639-4.901-2.647c-0.752-0.479-1.488-0.984-2.209-1.508c-1.526-1.11,0.126,0.264,0.226,0.193
			c-0.026,0.018-1.006-0.823-0.937-0.765c-1.573-1.315-3.067-2.723-4.496-4.194c-1.244-1.281-2.437-2.611-3.589-3.975
			c-0.619-0.733-1.22-1.479-1.821-2.226c-1.034-1.286,0.122,0.21,0.281,0.374c-0.439-0.452-0.787-1.041-1.162-1.551
			c-4.814-6.533-8.906-13.531-13.121-20.454c-4.833-7.937-10.083-15.573-15.849-22.862c-11.412-14.425-25.707-26.613-43.073-33.139
			c-14.064-5.286-31.01-5.145-45.035,0.204c-15.546,5.929-28.488,17.774-32.322,34.448c-4.737,20.596,4.189,40.201,11.69,58.896
			c1.49,3.715,2.983,7.44,4.116,11.283c0.479,1.625,0.903,3.267,1.272,4.92c0.401,1.795,0.439,3.904,1.037,5.626
			c-0.05-0.143-0.285-2.399-0.106-0.786c0.042,0.38,0.09,0.76,0.13,1.14c0.101,0.949,0.183,1.901,0.246,2.853
			c0.112,1.702,0.162,3.408,0.143,5.114c-0.019,1.678-0.104,3.355-0.266,5.026c-0.044,0.457-0.114,0.913-0.151,1.371
			c-0.106,1.315,0.422-2.501,0.068-0.596c-0.165,0.886-0.309,1.773-0.502,2.654c-0.339,1.548-0.759,3.08-1.272,4.579
			c-0.221,0.647-0.544,1.282-0.724,1.939c0.635-2.322,0.595-1.322,0.229-0.6c-0.229,0.452-0.44,0.913-0.676,1.362
			c-0.706,1.341-1.57,2.541-2.385,3.811c-0.656,1.022,1.596-1.848,0.39-0.537c-0.223,0.243-0.431,0.5-0.654,0.744
			c-0.557,0.611-1.144,1.195-1.759,1.749c-0.247,0.223-0.506,0.431-0.754,0.653c-1.332,1.189,1.56-0.988,0.506-0.392
			c-0.66,0.373-1.265,0.865-1.922,1.251c-0.671,0.394-1.426,0.68-2.079,1.093c-1.038,0.656,2.296-0.804,0.515-0.207
			c-0.631,0.212-1.247,0.457-1.885,0.651c-0.824,0.251-1.66,0.463-2.504,0.632c0.101-0.02-1.241,0.243-1.248,0.218
			c-0.011-0.037,2.311-0.232,0.317-0.106c-0.926,0.058-1.854,0.068-2.78,0.027c-0.41-0.018-0.819-0.064-1.229-0.082
			c-2.018-0.089,1.881,0.411,0.05,0.005c-1.839-0.408-3.639-0.836-5.412-1.489c-0.231-0.085-0.956-0.27-1.185-0.461
			c1.411,1.181,1.026,0.435,0.184,0.033c-0.884-0.422-1.754-0.874-2.608-1.354c-1.757-0.986-3.45-2.086-5.084-3.264
			c-0.336-0.242-0.796-0.518-1.104-0.815c1.527,1.474,0.446,0.34-0.009-0.03c-0.815-0.663-1.616-1.343-2.403-2.039
			c-3.206-2.835-6.185-5.921-8.997-9.144c-1.323-1.516-2.608-3.066-3.86-4.641c-0.336-0.422-1.383-1.724-0.044-0.033
			c-0.287-0.362-0.562-0.735-0.84-1.103c-0.686-0.908-1.359-1.825-2.028-2.746c-2.873-3.958-8.282-6.295-12.828-3.364
			c-3.923,2.529-6.445,8.583-3.364,12.828c5.571,7.676,11.577,15.16,18.702,21.462c7.056,6.24,15.344,11.917,24.682,13.996
			c9.206,2.05,19.1,0.792,27.162-4.279c7.132-4.486,11.9-11.118,14.985-18.846c5.616-14.072,4.157-31.249-0.366-45.406
			c-2.867-8.972-6.991-17.523-10.271-26.346c-1.683-4.527-3.211-9.123-4.327-13.825c-0.294-1.239-0.56-2.485-0.79-3.738
			c-0.091-0.497-0.165-0.998-0.258-1.494c-0.45-2.41,0.108,1.401-0.026-0.121c-0.209-2.362-0.404-4.698-0.35-7.074
			c0.028-1.242,0.133-2.47,0.238-3.707c0.109-1.285-0.32-0.263-0.037,0.274c-0.084-0.159,0.213-1.207,0.267-1.476
			c0.248-1.239,0.555-2.467,0.921-3.677c0.279-0.923,0.984-2.081,1.059-3.038c-0.107,1.378-0.72,1.591-0.294,0.712
			c0.239-0.494,0.465-0.993,0.716-1.483c0.331-0.646,0.681-1.282,1.051-1.907c0.459-0.775,0.947-1.533,1.463-2.271
			c0.182-0.261,0.51-0.598,0.63-0.873c-0.753,1.734-0.845,1.06-0.133,0.212c1.035-1.234,2.151-2.402,3.332-3.497
			c0.593-0.55,1.215-1.064,1.827-1.592c0.704-0.608,1.425-0.563-0.41,0.298c0.463-0.218,0.901-0.66,1.32-0.95
			c1.348-0.932,2.748-1.788,4.187-2.569c0.726-0.394,1.463-0.769,2.209-1.125c0.416-0.199,0.838-0.385,1.256-0.58
			c1.608-0.75-1.988,0.745-0.189,0.086c3.277-1.199,6.566-2.216,10-2.862c0.82-0.154,1.722-0.197,2.526-0.419
			c-2.839,0.782,0.057,0.021,0.909-0.051c1.805-0.152,3.618-0.221,5.429-0.208c1.717,0.013,3.432,0.099,5.141,0.262
			c0.44,0.042,0.987,0.2,1.42,0.152c-0.149,0.016-2.393-0.37-0.796-0.106c0.937,0.155,1.873,0.306,2.804,0.494
			c1.759,0.357,3.501,0.799,5.217,1.329c0.808,0.25,1.611,0.518,2.406,0.807c0.352,0.128,0.703,0.261,1.053,0.396
			c1,0.387,1.799,0.537,0.337,0.117c1.908,0.548,3.854,1.79,5.591,2.733c2.016,1.094,3.981,2.283,5.892,3.552
			c0.955,0.635,1.897,1.289,2.825,1.963c0.372,0.27,0.739,0.545,1.108,0.818c1.361,1.007-0.03-0.061-0.259-0.205
			c1.896,1.198,3.616,2.969,5.269,4.477c3.266,2.981,6.336,6.174,9.239,9.509c1.387,1.594,2.737,3.221,4.051,4.875
			c0.289,0.364,0.604,0.73,0.874,1.11c-1.232-1.731-0.284-0.364,0.041,0.065c0.783,1.035,1.553,2.079,2.313,3.132
			c10.107,14.008,17.629,29.722,28.869,42.931c5.285,6.211,11.748,12.058,19.23,15.465c8.539,3.889,17.603,5.151,26.836,3.22
			c15.165-3.171,26.337-15.939,32.895-29.281c7.712-15.689,10.556-32.372,12.531-49.581c2.38-20.745,3.674-41.614,3.892-62.494
			c0.443-42.587-3.613-85.252-11.877-127.028c-4.106-20.757-9.298-41.3-15.565-61.51c-5.854-18.875-12.845-37.551-25.388-53.079
			c-11.823-14.636-29.905-24.914-48.948-25.358c-17.553-0.409-33.519,8.921-42.612,23.749c-8.208,13.385-10.854,30.185-9.568,45.658
			c1.568,18.873,9.166,36.073,17.029,53.076c2.062,4.46,4.149,8.909,6.154,13.395c0.474,1.06,0.943,2.122,1.407,3.187
			c0.218,0.501,1.537,3.667,0.723,1.671c0.971,2.381,1.941,4.76,2.839,7.17c1.702,4.566,3.21,9.209,4.406,13.934
			c0.522,2.063,1,4.141,1.371,6.237c0.069,0.388,0.125,0.778,0.195,1.165c0.287,1.608-0.098-0.541-0.083-0.726
			c-0.09,1.111,0.275,2.469,0.352,3.585c0.124,1.809,0.167,3.624,0.122,5.436c-0.02,0.804-0.057,1.608-0.112,2.41
			c-0.035,0.5-0.077,0.998-0.126,1.497c-0.217,2.204,0.196-1.04,0.044-0.12c-0.288,1.746-0.611,3.474-1.081,5.182
			c-0.23,0.835-0.486,1.663-0.773,2.48c-0.126,0.36-0.269,0.713-0.396,1.072c-0.616,1.739,1.019-1.946-0.067,0.096
			c-0.787,1.48-1.73,2.848-2.544,4.301c-0.605,1.08,1.562-1.763,0.282-0.379c-0.249,0.269-0.479,0.554-0.728,0.823
			c-0.627,0.677-1.315,1.278-1.986,1.908c-1.371,1.289,1.45-0.839,0.362-0.268c-0.405,0.213-0.78,0.541-1.169,0.784
			c-0.651,0.407-1.338,0.742-2.005,1.118c-1.799,1.013,1.511-0.49,0.264-0.087c-0.479,0.155-0.947,0.342-1.43,0.488
			c-0.718,0.216-2.321,0.222-2.896,0.661c1.011-0.77,1.899-0.123,0.445-0.11c-0.489,0.004-0.978,0.049-1.467,0.05
			c-0.787,0.001-1.566-0.069-2.35-0.113c-2.024-0.115,1.748,0.355,0.441,0.051c-0.483-0.113-0.975-0.187-1.459-0.3
			c-0.977-0.23-1.941-0.513-2.889-0.842c0.091,0.032-1.147-0.403-1.141-0.422c-0.006,0.022,2.029,0.921,0.268,0.095
			c-0.843-0.395-1.67-0.825-2.479-1.286c-0.819-0.467-1.619-0.966-2.401-1.493c-0.438-0.295-0.863-0.608-1.296-0.91
			c-1.529-1.068,1.421,1.228-0.109-0.105c-1.456-1.269-2.867-2.564-4.17-3.992c-0.289-0.317-0.573-0.638-0.853-0.963
			c-0.113-0.131-1.55-1.651-0.486-0.544c1.039,1.081-0.299-0.414-0.423-0.588c-0.371-0.52-0.73-1.048-1.076-1.585
			c-1.032-1.598-1.902-3.265-2.731-4.975c-0.173-0.356-0.669-1.659,0.012,0.077c-0.191-0.486-0.387-0.969-0.572-1.457
			c-0.552-1.46-1.047-2.941-1.495-4.436c-1.386-4.628-2.3-9.383-3.009-14.156c-0.096-0.65-0.199-1.3-0.279-1.952
			c0.042,0.341,0.248,1.954,0.025,0.143c-0.145-1.179-0.29-2.357-0.428-3.537c-0.291-2.494-0.562-4.991-0.851-7.486
			c-1.088-9.391-2.26-18.833-5.501-27.766c-3.078-8.483-7.405-16.635-13.845-23.066c-6.796-6.786-15.427-10.845-24.96-11.777
			c-18.301-1.789-35.82,11.627-43.897,27.203c-9.921,19.132-6.904,41.744,0.102,61.313c1.929,5.388,4.153,10.673,6.472,15.902
			c0.449,1.013,0.909,2.021,1.359,3.034c0.177,0.4,0.349,0.802,0.528,1.201c0.901,2.011-0.572-1.42-0.034-0.097
			c0.809,1.987,1.6,3.979,2.299,6.008c0.697,2.023,1.318,4.072,1.821,6.152c0.233,0.965,0.443,1.936,0.619,2.913
			c0.013,0.074,0.286,1.125,0.213,1.287c-0.182-1.425-0.214-1.617-0.095-0.575c0.019,0.212,0.038,0.423,0.058,0.635
			c0.084,1.041,0.124,2.087,0.105,3.132c-0.009,0.513-0.412,2.078-0.154,2.443c-0.42-0.593,0.353-2.099,0.007-0.413
			c-0.1,0.487-0.214,0.97-0.348,1.448c-0.107,0.382-0.239,0.754-0.354,1.133c-0.587,1.927,0.993-1.825,0.027-0.048
			c-0.219,0.403-1.198,2.604-1.566,2.583c-0.077-0.004,1.589-1.775,0.288-0.441c-0.293,0.301-0.568,0.615-0.87,0.907
			c-0.281,0.272-1.201,1.6-0.438,0.458c0.669-1.003-0.032,0-0.53,0.309c-0.339,0.211-0.688,0.41-1.04,0.597
			c-0.264,0.142-0.533,0.275-0.806,0.399c-0.644,0.298-0.358,0.178,0.858-0.363c-0.822,0.071-1.786,0.587-2.6,0.772
			c-0.246,0.056-1.383,0.128-1.493,0.285c0.102-0.148,2.392-0.193,0.667-0.129c-0.931,0.034-1.85,0.079-2.783,0.041
			c-0.157-0.006-1.555-0.111-1.556-0.108c0.02-0.094,2.404,0.435,0.009-0.033c-0.825-0.161-1.643-0.36-2.45-0.596
			c-0.607-0.177-1.196-0.401-1.798-0.591c-0.751-0.236-0.924-0.762,0.489,0.236c-1.768-1.248-3.887-1.902-5.587-3.337
			c0.235,0.198,1.487,1.258,0.233,0.127c-0.352-0.317-0.714-0.622-1.063-0.943c-0.871-0.802-1.705-1.646-2.504-2.521
			c-0.642-0.703-1.245-1.437-1.857-2.165c-1.493-1.775,0.747,1.118-0.061-0.091c-0.399-0.597-0.84-1.169-1.244-1.763
			c-5.407-7.954-9.367-16.977-13.171-25.776c0.031,0.07-1.043-2.436-0.508-1.176c0.535,1.26-0.52-1.254-0.491-1.183
			c-0.477-1.154-0.946-2.31-1.408-3.469c-0.976-2.447-1.921-4.907-2.834-7.378c-1.826-4.943-3.524-9.933-5.092-14.964
			c-3.073-9.858-5.553-19.862-7.74-29.95c-2.056-9.483-4.006-19.012-6.889-28.288c-2.923-9.404-6.73-18.926-12.375-27.054
			c-5.518-7.947-12.432-14.81-20.679-19.918c-15.425-9.554-35.686-11.403-51.14-0.827c-13.398,9.17-20.764,24.282-24.258,39.771
			c-3.818,16.924-3.57,34.399-2.579,51.618c1.153,20.035,3.877,40.033,8.097,59.652c8.308,38.631,22.691,76.112,42.336,110.399
			c21.007,36.664,48.885,68.517,76.296,100.443c14.091,16.411,28.181,32.823,42.272,49.234c3.206,3.734,10.012,3.538,13.259,0
			C856.256,1099.509,856.026,1094.21,852.605,1090.226L852.605,1090.226z"/>
	</g>
</g>
</svg>
